<?xml version="1.0" encoding="UTF-8" standalone="no"?>
<!DOCTYPE svg PUBLIC "-//W3C//DTD SVG 1.1//EN"
 "http://www.w3.org/Graphics/SVG/1.1/DTD/svg11.dtd">
<!-- Generated by graphviz version 2.43.0 (0)
 -->
<!-- Title: DDPG Pages: 1 -->
<svg width="580pt" height="789pt"
 viewBox="0.00 0.00 580.00 789.00" xmlns="http://www.w3.org/2000/svg" xmlns:xlink="http://www.w3.org/1999/xlink">
<g id="graph0" class="graph" transform="scale(1 1) rotate(0) translate(4 785)">
<title>DDPG</title>
<polygon fill="white" stroke="transparent" points="-4,4 -4,-785 576,-785 576,4 -4,4"/>
<g id="clust1" class="cluster">
<title>cluster_agent</title>
<polygon fill="none" stroke="#a3a3a3" stroke-width="1.5" points="8,-8 8,-773 564,-773 564,-8 8,-8"/>
<text text-anchor="middle" x="286" y="-757.8" font-family="Times,serif" font-size="14.00">DDPG agent</text>
</g>
<g id="clust2" class="cluster">
<title>cluster_exec</title>
<polygon fill="none" stroke="#d4d4d4" points="268,-327 268,-742 495,-742 495,-327 268,-327"/>
<text text-anchor="middle" x="381.5" y="-726.8" font-family="Times,serif" font-size="14.00">Interaction with environment</text>
</g>
<g id="clust3" class="cluster">
<title>cluster_data</title>
<polygon fill="none" stroke="#d4d4d4" points="150,-244 150,-319 263,-319 263,-244 150,-244"/>
<text text-anchor="middle" x="206.5" y="-303.8" font-family="Times,serif" font-size="14.00">Replay buffer</text>
</g>
<g id="clust4" class="cluster">
<title>cluster_targets</title>
<polygon fill="none" stroke="#d4d4d4" points="314,-158.5 314,-319 546,-319 546,-158.5 314,-158.5"/>
<text text-anchor="middle" x="430" y="-303.8" font-family="Times,serif" font-size="14.00">Target networks (Soft update)</text>
</g>
<g id="clust5" class="cluster">
<title>cluster_learn</title>
<polygon fill="none" stroke="#d4d4d4" points="16,-16 16,-236 306,-236 306,-16 16,-16"/>
<text text-anchor="middle" x="161" y="-220.8" font-family="Times,serif" font-size="14.00">Learning</text>
</g>
<!-- state_in -->
<g id="node1" class="node">
<title>state_in</title>
<path fill="#e0f2fe" stroke="black" d="M399.5,-711C399.5,-711 358.5,-711 358.5,-711 352.5,-711 346.5,-705 346.5,-699 346.5,-699 346.5,-687 346.5,-687 346.5,-681 352.5,-675 358.5,-675 358.5,-675 399.5,-675 399.5,-675 405.5,-675 411.5,-681 411.5,-687 411.5,-687 411.5,-699 411.5,-699 411.5,-705 405.5,-711 399.5,-711"/>
<text text-anchor="middle" x="379" y="-690.5" font-family="Times,serif" font-size="10.00">last_state</text>
</g>
<!-- norm_exec -->
<g id="node2" class="node">
<title>norm_exec</title>
<path fill="#e0f2fe" stroke="black" d="M428.5,-646C428.5,-646 383.5,-646 383.5,-646 377.5,-646 371.5,-640 371.5,-634 371.5,-634 371.5,-622 371.5,-622 371.5,-616 377.5,-610 383.5,-610 383.5,-610 428.5,-610 428.5,-610 434.5,-610 440.5,-616 440.5,-622 440.5,-622 440.5,-634 440.5,-634 440.5,-640 434.5,-646 428.5,-646"/>
<text text-anchor="middle" x="406" y="-631" font-family="Times,serif" font-size="10.00">Normalise</text>
<text text-anchor="middle" x="406" y="-620" font-family="Times,serif" font-size="10.00">state</text>
</g>
<!-- state_in&#45;&gt;norm_exec -->
<g id="edge1" class="edge">
<title>state_in&#45;&gt;norm_exec</title>
<path fill="none" stroke="black" d="M391.5,-674.89C391.5,-674.89 391.5,-656.01 391.5,-656.01"/>
<polygon fill="black" stroke="black" points="395,-656.01 391.5,-646.01 388,-656.01 395,-656.01"/>
</g>
<!-- actor -->
<g id="node3" class="node">
<title>actor</title>
<path fill="#e0f2fe" stroke="black" d="M456.5,-581C456.5,-581 397.5,-581 397.5,-581 391.5,-581 385.5,-575 385.5,-569 385.5,-569 385.5,-552 385.5,-552 385.5,-546 391.5,-540 397.5,-540 397.5,-540 456.5,-540 456.5,-540 462.5,-540 468.5,-546 468.5,-552 468.5,-552 468.5,-569 468.5,-569 468.5,-575 462.5,-581 456.5,-581"/>
<text text-anchor="middle" x="427" y="-569" font-family="Times,serif" font-size="10.00">Actor –</text>
<text text-anchor="middle" x="427" y="-558" font-family="Times,serif" font-size="10.00">deterministic</text>
<text text-anchor="middle" x="427" y="-547" font-family="Times,serif" font-size="10.00">policy</text>
</g>
<!-- norm_exec&#45;&gt;actor -->
<g id="edge2" class="edge">
<title>norm_exec&#45;&gt;actor</title>
<path fill="none" stroke="black" d="M413,-609.91C413,-609.91 413,-591.02 413,-591.02"/>
<polygon fill="black" stroke="black" points="416.5,-591.02 413,-581.02 409.5,-591.02 416.5,-591.02"/>
</g>
<!-- explore -->
<g id="node4" class="node">
<title>explore</title>
<path fill="#e0f2fe" stroke="black" d="M436,-511C436,-511 386,-511 386,-511 380,-511 374,-505 374,-499 374,-499 374,-482 374,-482 374,-476 380,-470 386,-470 386,-470 436,-470 436,-470 442,-470 448,-476 448,-482 448,-482 448,-499 448,-499 448,-505 442,-511 436,-511"/>
<text text-anchor="middle" x="411" y="-499" font-family="Times,serif" font-size="10.00">Add</text>
<text text-anchor="middle" x="411" y="-488" font-family="Times,serif" font-size="10.00">exploration</text>
<text text-anchor="middle" x="411" y="-477" font-family="Times,serif" font-size="10.00">noise (OU)</text>
</g>
<!-- actor&#45;&gt;explore -->
<g id="edge3" class="edge">
<title>actor&#45;&gt;explore</title>
<path fill="none" stroke="black" d="M416.75,-539.88C416.75,-539.88 416.75,-521.22 416.75,-521.22"/>
<polygon fill="black" stroke="black" points="420.25,-521.22 416.75,-511.22 413.25,-521.22 420.25,-521.22"/>
</g>
<!-- softup -->
<g id="node10" class="node">
<title>softup</title>
<path fill="#fee2e2" stroke="black" d="M491,-288C491,-288 439,-288 439,-288 433,-288 427,-282 427,-276 427,-276 427,-264 427,-264 427,-258 433,-252 439,-252 439,-252 491,-252 491,-252 497,-252 503,-258 503,-264 503,-264 503,-276 503,-276 503,-282 497,-288 491,-288"/>
<text text-anchor="middle" x="465" y="-267.5" font-family="Times,serif" font-size="10.00">Soft update</text>
</g>
<!-- actor&#45;&gt;softup -->
<g id="edge21" class="edge">
<title>actor&#45;&gt;softup</title>
<path fill="none" stroke="black" stroke-dasharray="5,2" d="M459.25,-539.61C459.25,-539.61 459.25,-298.06 459.25,-298.06"/>
<polygon fill="black" stroke="black" points="462.75,-298.06 459.25,-288.06 455.75,-298.06 462.75,-298.06"/>
</g>
<!-- actor_up -->
<g id="node16" class="node">
<title>actor_up</title>
<path fill="#ede9fe" stroke="black" d="M285.5,-65C285.5,-65 214.5,-65 214.5,-65 208.5,-65 202.5,-59 202.5,-53 202.5,-53 202.5,-36 202.5,-36 202.5,-30 208.5,-24 214.5,-24 214.5,-24 285.5,-24 285.5,-24 291.5,-24 297.5,-30 297.5,-36 297.5,-36 297.5,-53 297.5,-53 297.5,-59 291.5,-65 285.5,-65"/>
<text text-anchor="middle" x="250" y="-53" font-family="Times,serif" font-size="10.00">Actor update:</text>
<text text-anchor="middle" x="250" y="-42" font-family="Times,serif" font-size="10.00">increase critic’s</text>
<text text-anchor="middle" x="250" y="-31" font-family="Times,serif" font-size="10.00">value for π(s)</text>
</g>
<!-- actor&#45;&gt;actor_up -->
<g id="edge16" class="edge">
<title>actor&#45;&gt;actor_up</title>
<path fill="none" stroke="black" d="M385.27,-560C349.86,-560 304.75,-560 304.75,-560 304.75,-560 304.75,-44 304.75,-44 304.75,-44 304.03,-44 304.03,-44"/>
<polygon fill="black" stroke="black" points="307.59,-40.5 297.59,-44 307.59,-47.5 307.59,-40.5"/>
</g>
<!-- act_conv -->
<g id="node5" class="node">
<title>act_conv</title>
<path fill="#e0f2fe" stroke="black" d="M438,-441C438,-441 380,-441 380,-441 374,-441 368,-435 368,-429 368,-429 368,-412 368,-412 368,-406 374,-400 380,-400 380,-400 438,-400 438,-400 444,-400 450,-406 450,-412 450,-412 450,-429 450,-429 450,-435 444,-441 438,-441"/>
<text text-anchor="middle" x="409" y="-429" font-family="Times,serif" font-size="10.00">Transform</text>
<text text-anchor="middle" x="409" y="-418" font-family="Times,serif" font-size="10.00">action</text>
<text text-anchor="middle" x="409" y="-407" font-family="Times,serif" font-size="10.00">(tanh / scale)</text>
</g>
<!-- explore&#45;&gt;act_conv -->
<g id="edge4" class="edge">
<title>explore&#45;&gt;act_conv</title>
<path fill="none" stroke="black" d="M411,-469.88C411,-469.88 411,-451.22 411,-451.22"/>
<polygon fill="black" stroke="black" points="414.5,-451.22 411,-441.22 407.5,-451.22 414.5,-451.22"/>
</g>
<!-- env -->
<g id="node6" class="node">
<title>env</title>
<path fill="#e0f2fe" stroke="black" d="M382.5,-371C382.5,-371 323.5,-371 323.5,-371 317.5,-371 311.5,-365 311.5,-359 311.5,-359 311.5,-347 311.5,-347 311.5,-341 317.5,-335 323.5,-335 323.5,-335 382.5,-335 382.5,-335 388.5,-335 394.5,-341 394.5,-347 394.5,-347 394.5,-359 394.5,-359 394.5,-365 388.5,-371 382.5,-371"/>
<text text-anchor="middle" x="353" y="-350.5" font-family="Times,serif" font-size="10.00">Environment</text>
</g>
<!-- act_conv&#45;&gt;env -->
<g id="edge5" class="edge">
<title>act_conv&#45;&gt;env</title>
<path fill="none" stroke="black" d="M381.25,-399.88C381.25,-399.88 381.25,-381.21 381.25,-381.21"/>
<polygon fill="black" stroke="black" points="384.75,-381.21 381.25,-371.21 377.75,-381.21 384.75,-381.21"/>
</g>
<!-- env&#45;&gt;state_in -->
<g id="edge6" class="edge">
<title>env&#45;&gt;state_in</title>
<path fill="none" stroke="black" d="M357.25,-371.28C357.25,-371.28 357.25,-664.63 357.25,-664.63"/>
<polygon fill="black" stroke="black" points="353.75,-664.63 357.25,-674.63 360.75,-664.63 353.75,-664.63"/>
</g>
<!-- buf -->
<g id="node7" class="node">
<title>buf</title>
<path fill="#dcfce7" stroke="black" d="M240,-288C240,-288 174,-288 174,-288 168,-288 162,-282 162,-276 162,-276 162,-264 162,-264 162,-258 168,-252 174,-252 174,-252 240,-252 240,-252 246,-252 252,-258 252,-264 252,-264 252,-276 252,-276 252,-282 246,-288 240,-288"/>
<text text-anchor="middle" x="207" y="-273" font-family="Times,serif" font-size="10.00">store (s, a, r,</text>
<text text-anchor="middle" x="207" y="-262" font-family="Times,serif" font-size="10.00">done/trunc, s&#39;)</text>
</g>
<!-- env&#45;&gt;buf -->
<g id="edge7" class="edge">
<title>env&#45;&gt;buf</title>
<path fill="none" stroke="black" d="M316.75,-334.85C316.75,-311.24 316.75,-273 316.75,-273 316.75,-273 262.27,-273 262.27,-273"/>
<polygon fill="black" stroke="black" points="262.27,-269.5 252.27,-273 262.27,-276.5 262.27,-269.5"/>
</g>
<!-- sampler -->
<g id="node11" class="node">
<title>sampler</title>
<path fill="#ede9fe" stroke="black" d="M80,-132.5C80,-132.5 36,-132.5 36,-132.5 30,-132.5 24,-126.5 24,-120.5 24,-120.5 24,-108.5 24,-108.5 24,-102.5 30,-96.5 36,-96.5 36,-96.5 80,-96.5 80,-96.5 86,-96.5 92,-102.5 92,-108.5 92,-108.5 92,-120.5 92,-120.5 92,-126.5 86,-132.5 80,-132.5"/>
<text text-anchor="middle" x="58" y="-117.5" font-family="Times,serif" font-size="10.00">Minibatch</text>
<text text-anchor="middle" x="58" y="-106.5" font-family="Times,serif" font-size="10.00">sampling</text>
</g>
<!-- buf&#45;&gt;sampler -->
<g id="edge18" class="edge">
<title>buf&#45;&gt;sampler</title>
<path fill="none" stroke="black" d="M161.89,-270C118.04,-270 58,-270 58,-270 58,-270 58,-142.64 58,-142.64"/>
<polygon fill="black" stroke="black" points="61.5,-142.64 58,-132.64 54.5,-142.64 61.5,-142.64"/>
</g>
<!-- critic -->
<g id="node12" class="node">
<title>critic</title>
<path fill="#ede9fe" stroke="black" d="M286,-132.5C286,-132.5 256,-132.5 256,-132.5 250,-132.5 244,-126.5 244,-120.5 244,-120.5 244,-108.5 244,-108.5 244,-102.5 250,-96.5 256,-96.5 256,-96.5 286,-96.5 286,-96.5 292,-96.5 298,-102.5 298,-108.5 298,-108.5 298,-120.5 298,-120.5 298,-126.5 292,-132.5 286,-132.5"/>
<text text-anchor="middle" x="271" y="-117.5" font-family="Times,serif" font-size="10.00">Critic –</text>
<text text-anchor="middle" x="271" y="-106.5" font-family="Times,serif" font-size="10.00">Q(s, a)</text>
</g>
<!-- buf&#45;&gt;critic -->
<g id="edge20" class="edge">
<title>buf&#45;&gt;critic</title>
<path fill="none" stroke="black" d="M252.11,-280C260.84,-280 267.33,-280 267.33,-280 267.33,-280 267.33,-142.53 267.33,-142.53"/>
<polygon fill="black" stroke="black" points="270.83,-142.53 267.33,-132.53 263.83,-142.53 270.83,-142.53"/>
</g>
<!-- target_pi -->
<g id="node13" class="node">
<title>target_pi</title>
<path fill="#ede9fe" stroke="black" d="M237,-205C237,-205 181,-205 181,-205 175,-205 169,-199 169,-193 169,-193 169,-176 169,-176 169,-170 175,-164 181,-164 181,-164 237,-164 237,-164 243,-164 249,-170 249,-176 249,-176 249,-193 249,-193 249,-199 243,-205 237,-205"/>
<text text-anchor="middle" x="209" y="-193" font-family="Times,serif" font-size="10.00">Target</text>
<text text-anchor="middle" x="209" y="-182" font-family="Times,serif" font-size="10.00">action</text>
<text text-anchor="middle" x="209" y="-171" font-family="Times,serif" font-size="10.00">at next state</text>
</g>
<!-- buf&#45;&gt;target_pi -->
<g id="edge19" class="edge">
<title>buf&#45;&gt;target_pi</title>
<path fill="none" stroke="black" d="M209,-251.87C209,-251.87 209,-215.01 209,-215.01"/>
<polygon fill="black" stroke="black" points="212.5,-215.01 209,-205.01 205.5,-215.01 212.5,-215.01"/>
</g>
<!-- act_t -->
<g id="node8" class="node">
<title>act_t</title>
<path fill="#fee2e2" stroke="black" d="M396,-202.5C396,-202.5 334,-202.5 334,-202.5 328,-202.5 322,-196.5 322,-190.5 322,-190.5 322,-178.5 322,-178.5 322,-172.5 328,-166.5 334,-166.5 334,-166.5 396,-166.5 396,-166.5 402,-166.5 408,-172.5 408,-178.5 408,-178.5 408,-190.5 408,-190.5 408,-196.5 402,-202.5 396,-202.5"/>
<text text-anchor="middle" x="365" y="-187.5" font-family="Times,serif" font-size="10.00">Actor target –</text>
<text text-anchor="middle" x="365" y="-176.5" font-family="Times,serif" font-size="10.00">delayed copy</text>
</g>
<!-- cri_t -->
<g id="node9" class="node">
<title>cri_t</title>
<path fill="#fee2e2" stroke="black" d="M496,-202.5C496,-202.5 434,-202.5 434,-202.5 428,-202.5 422,-196.5 422,-190.5 422,-190.5 422,-178.5 422,-178.5 422,-172.5 428,-166.5 434,-166.5 434,-166.5 496,-166.5 496,-166.5 502,-166.5 508,-172.5 508,-178.5 508,-178.5 508,-190.5 508,-190.5 508,-196.5 502,-202.5 496,-202.5"/>
<text text-anchor="middle" x="465" y="-187.5" font-family="Times,serif" font-size="10.00">Critic target –</text>
<text text-anchor="middle" x="465" y="-176.5" font-family="Times,serif" font-size="10.00">delayed copy</text>
</g>
<!-- td_target -->
<g id="node14" class="node">
<title>td_target</title>
<path fill="#ede9fe" stroke="black" d="M217.5,-135C217.5,-135 118.5,-135 118.5,-135 112.5,-135 106.5,-129 106.5,-123 106.5,-123 106.5,-106 106.5,-106 106.5,-100 112.5,-94 118.5,-94 118.5,-94 217.5,-94 217.5,-94 223.5,-94 229.5,-100 229.5,-106 229.5,-106 229.5,-123 229.5,-123 229.5,-129 223.5,-135 217.5,-135"/>
<text text-anchor="middle" x="168" y="-123" font-family="Times,serif" font-size="10.00">Bellman target:</text>
<text text-anchor="middle" x="168" y="-112" font-family="Times,serif" font-size="10.00">reward + discounted</text>
<text text-anchor="middle" x="168" y="-101" font-family="Times,serif" font-size="10.00"> target Q</text>
</g>
<!-- cri_t&#45;&gt;td_target -->
<g id="edge14" class="edge">
<title>cri_t&#45;&gt;td_target</title>
<path fill="none" stroke="black" d="M465,-166.33C465,-157.6 465,-149 465,-149 465,-149 209.33,-149 209.33,-149 209.33,-149 209.33,-145.36 209.33,-145.36"/>
<polygon fill="black" stroke="black" points="212.83,-145.36 209.33,-135.36 205.83,-145.36 212.83,-145.36"/>
</g>
<!-- softup&#45;&gt;act_t -->
<g id="edge8" class="edge">
<title>softup&#45;&gt;act_t</title>
<path fill="none" stroke="black" stroke-dasharray="5,2" d="M426.81,-259C413.24,-259 401.25,-259 401.25,-259 401.25,-259 401.25,-212.53 401.25,-212.53"/>
<polygon fill="black" stroke="black" points="404.75,-212.53 401.25,-202.53 397.75,-212.53 404.75,-212.53"/>
</g>
<!-- softup&#45;&gt;cri_t -->
<g id="edge9" class="edge">
<title>softup&#45;&gt;cri_t</title>
<path fill="none" stroke="black" stroke-dasharray="5,2" d="M465,-251.87C465,-251.87 465,-212.61 465,-212.61"/>
<polygon fill="black" stroke="black" points="468.5,-212.61 465,-202.61 461.5,-212.61 468.5,-212.61"/>
</g>
<!-- critic_up -->
<g id="node15" class="node">
<title>critic_up</title>
<path fill="#ede9fe" stroke="black" d="M176,-65C176,-65 114,-65 114,-65 108,-65 102,-59 102,-53 102,-53 102,-36 102,-36 102,-30 108,-24 114,-24 114,-24 176,-24 176,-24 182,-24 188,-30 188,-36 188,-36 188,-53 188,-53 188,-59 182,-65 176,-65"/>
<text text-anchor="middle" x="145" y="-53" font-family="Times,serif" font-size="10.00">Critic update:</text>
<text text-anchor="middle" x="145" y="-42" font-family="Times,serif" font-size="10.00">fit to target</text>
<text text-anchor="middle" x="145" y="-31" font-family="Times,serif" font-size="10.00">(MSE)</text>
</g>
<!-- sampler&#45;&gt;critic_up -->
<g id="edge10" class="edge">
<title>sampler&#45;&gt;critic_up</title>
<path fill="none" stroke="black" d="M46.67,-96.34C46.67,-75.46 46.67,-44 46.67,-44 46.67,-44 91.87,-44 91.87,-44"/>
<polygon fill="black" stroke="black" points="91.87,-47.5 101.87,-44 91.87,-40.5 91.87,-47.5"/>
</g>
<!-- sampler&#45;&gt;actor_up -->
<g id="edge11" class="edge">
<title>sampler&#45;&gt;actor_up</title>
<path fill="none" stroke="black" d="M69.33,-96.41C69.33,-89.84 69.33,-84 69.33,-84 69.33,-84 216,-84 216,-84 216,-84 216,-75.18 216,-75.18"/>
<polygon fill="black" stroke="black" points="219.5,-75.18 216,-65.18 212.5,-75.18 219.5,-75.18"/>
</g>
<!-- critic&#45;&gt;softup -->
<g id="edge22" class="edge">
<title>critic&#45;&gt;softup</title>
<path fill="none" stroke="black" stroke-dasharray="5,2" d="M282.67,-132.77C282.67,-173.07 282.67,-266 282.67,-266 282.67,-266 416.78,-266 416.78,-266"/>
<polygon fill="black" stroke="black" points="416.78,-269.5 426.78,-266 416.78,-262.5 416.78,-269.5"/>
</g>
<!-- critic&#45;&gt;critic_up -->
<g id="edge12" class="edge">
<title>critic&#45;&gt;critic_up</title>
<path fill="none" stroke="black" d="M261.83,-96.15C261.83,-85.43 261.83,-74 261.83,-74 261.83,-74 160.83,-74 160.83,-74 160.83,-74 160.83,-73.13 160.83,-73.13"/>
<polygon fill="black" stroke="black" points="164.33,-75.31 160.83,-65.31 157.33,-75.31 164.33,-75.31"/>
</g>
<!-- critic&#45;&gt;actor_up -->
<g id="edge17" class="edge">
<title>critic&#45;&gt;actor_up</title>
<path fill="none" stroke="black" d="M279.67,-96.47C279.67,-96.47 279.67,-75.19 279.67,-75.19"/>
<polygon fill="black" stroke="black" points="283.17,-75.19 279.67,-65.19 276.17,-75.19 283.17,-75.19"/>
</g>
<!-- target_pi&#45;&gt;td_target -->
<g id="edge13" class="edge">
<title>target_pi&#45;&gt;td_target</title>
<path fill="none" stroke="black" d="M189.17,-163.88C189.17,-163.88 189.17,-145.22 189.17,-145.22"/>
<polygon fill="black" stroke="black" points="192.67,-145.22 189.17,-135.22 185.67,-145.22 192.67,-145.22"/>
</g>
<!-- td_target&#45;&gt;critic_up -->
<g id="edge15" class="edge">
<title>td_target&#45;&gt;critic_up</title>
<path fill="none" stroke="black" d="M133.67,-93.88C133.67,-93.88 133.67,-75.22 133.67,-75.22"/>
<polygon fill="black" stroke="black" points="137.17,-75.22 133.67,-65.22 130.17,-75.22 137.17,-75.22"/>
</g>
</g>
</svg>
